<svg width="31" height="31" viewBox="0 0 31 31" fill="none" xmlns="http://www.w3.org/2000/svg">
<path d="M13.7618 12.8571C17.0098 12.8571 19.6428 10.4267 19.6428 7.42857C19.6428 4.43045 17.0098 2 13.7618 2C10.5139 2 7.88086 4.43045 7.88086 7.42857C7.88086 10.4267 10.5139 12.8571 13.7618 12.8571Z" stroke="#575757" stroke-width="2.5"/>
<path d="M25.5238 23.0357C25.5282 22.8131 25.5238 23.2651 25.5238 23.0357ZM25.5238 23.0357C25.5238 19.6632 20.2574 16.9286 13.7619 16.9286C7.26639 16.9286 2 19.6632 2 23.0357C2 26.4082 2 29.1429 13.7619 29.1429C17.042 29.1429 19.4076 28.9298 21.1131 28.5498" stroke="#575757" stroke-width="2.5" stroke-linecap="round"/>
<path d="M23.263 26.1332C23.2761 25.8474 23.4043 25.5774 23.6208 25.3796C23.8374 25.1818 24.1255 25.0714 24.4252 25.0714H29.3368C29.6365 25.0714 29.9247 25.1818 30.1412 25.3796C30.3577 25.5774 30.4859 25.8474 30.499 26.1332L30.1175 26.3355L26.881 27.9989L23.6445 26.3355L23.263 26.1332ZM23.262 26.697V29.3896C23.262 29.6841 23.3845 29.9665 23.6027 30.1748C23.8208 30.383 24.1167 30.5 24.4252 30.5H29.3368C29.6453 30.5 29.9412 30.383 30.1593 30.1748C30.3775 29.9665 30.5001 29.6841 30.5001 29.3896V26.697L30.3641 26.7693L27.0035 28.4966C26.9659 28.516 26.9238 28.5261 26.881 28.5261C26.8382 28.5261 26.7961 28.516 26.7585 28.4966L23.3948 26.7676L23.262 26.697Z" fill="#575757"/>
</svg>
