<svg width="24" height="26" viewBox="0 0 24 26" fill="none" xmlns="http://www.w3.org/2000/svg">
<path d="M11.0469 0C5.45888 0 0.294875 3.477 1.26588 11.75C1.09288 11.888 0.925875 12.036 0.796875 12.219C0.293875 12.929 0.046875 13.852 0.046875 14.844C0.046875 16.089 0.780875 17.047 1.54688 17.75C2.10688 18.265 2.67988 18.624 3.32788 18.813C3.83788 20.453 4.77687 21.813 5.89087 22.75C5.98998 22.8439 6.10725 22.9164 6.23547 22.9632C6.36368 23.0101 6.50012 23.0301 6.63638 23.0222C6.77265 23.0143 6.90585 22.9786 7.02779 22.9173C7.14973 22.8559 7.25782 22.7703 7.34541 22.6656C7.433 22.5609 7.49823 22.4394 7.53709 22.3086C7.57594 22.1777 7.5876 22.0403 7.57134 21.9048C7.55509 21.7693 7.51126 21.6385 7.44256 21.5206C7.37386 21.4026 7.28174 21.3 7.17188 21.219C6.16587 20.372 5.32487 19.241 5.01587 17.781C4.96638 17.5605 4.84365 17.3632 4.66768 17.2214C4.49171 17.0796 4.27288 17.0015 4.04688 17C4.16988 17 3.40088 16.75 2.89088 16.281C2.38088 15.813 2.04688 15.226 2.04688 14.844C2.04688 14.38 2.15788 13.992 2.29688 13.688C2.4327 13.8422 2.61271 13.9508 2.81244 13.999C3.01216 14.0473 3.2219 14.0328 3.41312 13.9576C3.60434 13.8825 3.76777 13.7502 3.88116 13.5789C3.99456 13.4075 4.05242 13.2054 4.04688 13V12.156C4.04835 12.1247 4.04835 12.0933 4.04688 12.062C4.08687 11.349 4.18088 10.694 4.32788 10.094C5.70688 9.62 6.85487 10.389 8.04688 6.875C9.78688 12.048 14.2929 9.089 17.3909 8.938C17.7549 9.823 17.9809 10.863 18.0469 12.062C18.0454 12.0933 18.0454 12.1247 18.0469 12.156V13C18.0469 13.2652 18.1522 13.5196 18.3398 13.7071C18.5273 13.8946 18.7817 14 19.0469 14V16.469C18.6129 16.81 18.1319 17 18.0469 17C17.8209 17.0015 17.602 17.0796 17.4261 17.2214C17.2501 17.3632 17.1274 17.5605 17.0779 17.781C16.8739 18.747 16.4199 19.56 15.8599 20.25C15.7758 20.3526 15.7127 20.4707 15.6742 20.5976C15.6358 20.7246 15.6227 20.8579 15.6357 20.9898C15.6488 21.1218 15.6877 21.25 15.7503 21.3669C15.8128 21.4839 15.8978 21.5874 16.0004 21.6715C16.1029 21.7556 16.2211 21.8187 16.348 21.8572C16.4749 21.8956 16.6082 21.9087 16.7402 21.8957C16.8722 21.8826 17.0004 21.8437 17.1173 21.7811C17.2343 21.7186 17.3378 21.6336 17.4219 21.531C18.0219 20.792 18.4199 19.825 18.7349 18.813C19.3291 18.663 19.8835 18.3856 20.3599 18H21.0469C20.8019 19.281 20.3509 20.248 19.8909 20.938C19.2409 21.913 18.6809 22.254 18.6409 22.281C18.6119 22.296 18.2569 22.491 17.2339 22.719C16.4539 22.892 15.3309 23.077 13.8279 23.156C13.6269 22.041 12.4589 21.188 11.0469 21.188C9.49287 21.188 8.23388 22.223 8.23388 23.5C8.23388 24.777 9.49388 25.813 11.0469 25.813C12.0179 25.813 12.8849 25.397 13.3909 24.781C15.2409 24.707 16.6469 24.495 17.6099 24.281C18.7959 24.018 19.3899 23.719 19.3899 23.719C19.423 23.7003 19.4547 23.6792 19.4849 23.656C19.4849 23.656 20.3769 23.051 21.2029 21.813C21.8709 20.811 22.5329 19.358 22.7659 17.438C23.4939 16.893 23.9529 16.002 23.9529 15V13C23.9529 11.343 22.7029 10 21.0469 10H20.8909C20.8949 3.002 16.2209 0 11.0469 0ZM19.7029 9.875C19.7329 9.917 19.7679 9.955 19.7969 10H19.7029C19.6949 9.959 19.7119 9.916 19.7029 9.875ZM7.04688 12C6.51644 12 6.00773 12.2107 5.63266 12.5858C5.25759 12.9609 5.04688 13.4696 5.04688 14C5.04688 14.5304 5.25759 15.0391 5.63266 15.4142C6.00773 15.7893 6.51644 16 7.04688 16C7.57731 16 8.08602 15.7893 8.46109 15.4142C8.83616 15.0391 9.04688 14.5304 9.04688 14C9.04688 13.4696 8.83616 12.9609 8.46109 12.5858C8.08602 12.2107 7.57731 12 7.04688 12ZM15.0469 12C14.5164 12 14.0077 12.2107 13.6327 12.5858C13.2576 12.9609 13.0469 13.4696 13.0469 14C13.0469 14.5304 13.2576 15.0391 13.6327 15.4142C14.0077 15.7893 14.5164 16 15.0469 16C15.5773 16 16.086 15.7893 16.4611 15.4142C16.8362 15.0391 17.0469 14.5304 17.0469 14C17.0469 13.4696 16.8362 12.9609 16.4611 12.5858C16.086 12.2107 15.5773 12 15.0469 12Z" fill="#2B32B2"/>
</svg>
