<svg width="18" height="21" viewBox="0 0 18 21" fill="none" xmlns="http://www.w3.org/2000/svg">
<path d="M9 21L6 18H2C1.45 18 0.979002 17.804 0.587002 17.412C0.195002 17.02 -0.000664969 16.5493 1.69779e-06 16V2C1.69779e-06 1.45 0.196002 0.979002 0.588002 0.587002C0.980002 0.195002 1.45067 -0.000664969 2 1.69779e-06H16C16.55 1.69779e-06 17.021 0.196002 17.413 0.588002C17.805 0.980002 18.0007 1.45067 18 2V16C18 16.55 17.804 17.021 17.412 17.413C17.02 17.805 16.5493 18.0007 16 18H12L9 21ZM8.9 15C9.25 15 9.546 14.879 9.788 14.637C10.03 14.395 10.1507 14.0993 10.15 13.75C10.15 13.4 10.029 13.104 9.787 12.862C9.545 12.62 9.24933 12.4993 8.9 12.5C8.55 12.5 8.254 12.621 8.012 12.863C7.77 13.105 7.64933 13.4007 7.65 13.75C7.65 14.1 7.771 14.396 8.013 14.638C8.255 14.88 8.55067 15.0007 8.9 15ZM8 11.15H9.85C9.85 10.8667 9.86267 10.625 9.888 10.425C9.91333 10.225 9.96734 10.0333 10.05 9.85C10.1333 9.66667 10.2373 9.496 10.362 9.338C10.4867 9.18 10.666 8.984 10.9 8.75C11.4833 8.16667 11.896 7.679 12.138 7.287C12.38 6.895 12.5007 6.44934 12.5 5.95C12.5 5.06667 12.2 4.354 11.6 3.812C11 3.27 10.1917 2.99934 9.175 3C8.25834 3 7.47934 3.225 6.838 3.675C6.19667 4.125 5.75067 4.75 5.5 5.55L7.15 6.2C7.26667 5.75 7.5 5.38767 7.85 5.113C8.2 4.83834 8.60834 4.70067 9.075 4.7C9.525 4.7 9.9 4.821 10.2 5.063C10.5 5.305 10.65 5.62567 10.65 6.025C10.65 6.30833 10.5583 6.60834 10.375 6.925C10.1917 7.24167 9.88334 7.59167 9.45 7.975C9.16667 8.20834 8.93734 8.43767 8.762 8.663C8.58667 8.88834 8.441 9.12567 8.325 9.375C8.20834 9.625 8.125 9.88767 8.075 10.163C8.025 10.4383 8 10.7673 8 11.15Z" fill="#575757"/>
</svg>
