<svg width="24" height="28" viewBox="0 0 24 28" fill="none" xmlns="http://www.w3.org/2000/svg">
<path d="M24 12.7273C24 19.7909 18.88 26.3964 12 28C5.12 26.3964 0 19.7909 0 12.7273V5.09091L12 0L24 5.09091V12.7273ZM12 25.4545C17 24.1818 21.3333 18.5055 21.3333 13.0073V6.74545L12 2.77455L2.66667 6.74545V13.0073C2.66667 18.5055 7 24.1818 12 25.4545ZM15.7333 12.7273V10.8182C15.7333 9.03636 13.8667 7.63636 12 7.63636C10.1333 7.63636 8.26667 9.03636 8.26667 10.8182V12.7273C7.46667 12.7273 6.66667 13.4909 6.66667 14.2545V18.7091C6.66667 19.6 7.46667 20.3636 8.26667 20.3636H15.6C16.5333 20.3636 17.3333 19.6 17.3333 18.8364V14.3818C17.3333 13.4909 16.5333 12.7273 15.7333 12.7273ZM14 12.7273H10V10.8182C10 9.8 10.9333 9.16364 12 9.16364C13.0667 9.16364 14 9.8 14 10.8182V12.7273Z" fill="#575757" fill-opacity="0.8"/>
</svg>
